<?xml version="1.0" encoding="UTF-8"?>
<svg width="26px" height="23px" viewBox="0 0 26 23" version="1.1" xmlns="http://www.w3.org/2000/svg" xmlns:xlink="http://www.w3.org/1999/xlink">
    <!-- Generator: Sketch 59.1 (86144) - https://sketch.com -->
    <title>Combined Shape</title>
    <desc>Created with Sketch.</desc>
    <g id="Page-1" stroke="none" stroke-width="1" fill="none" fill-rule="evenodd">
        <g id="About--2" transform="translate(-244.000000, -692.000000)" fill="#0074B8" fill-rule="nonzero">
            <path d="M249.685333,699.159273 L249.685333,714.414545 L244.693333,714.414545 L244.693333,699.159273 L249.685333,699.159273 Z M263.274667,699.025455 C266.810667,699.025455 269.584,701.233455 269.653333,705.917091 L269.653333,705.917091 L269.653333,714.414545 L263.968,714.414545 L263.968,706.519273 C263.968,704.445091 263.066667,703.04 261.125333,703.04 C259.6,703.04 258.837333,703.976727 258.421333,704.913455 C258.282667,705.248 258.282667,705.716364 258.282667,706.184727 L258.282667,706.184727 L258.282667,714.414545 L252.666667,714.414545 C252.666667,714.414545 252.736,700.430545 252.666667,699.159273 L252.666667,699.159273 L258.282667,699.159273 L258.282667,701.568 C258.629333,700.497455 260.432,699.025455 263.274667,699.025455 Z M247.050667,692 C248.922667,692 250.032,693.137455 250.101333,694.609455 C250.101333,696.148364 248.922667,697.285818 247.050667,697.285818 L247.050667,697.285818 L246.981333,697.285818 C245.178667,697.285818 244,696.148364 244,694.676364 C244,693.137455 245.178667,692 247.050667,692 Z" id="Combined-Shape"></path>
        </g>
    </g>
</svg>