<?xml version="1.0" encoding="UTF-8"?>
<svg width="24px" height="24px" viewBox="0 0 24 24" version="1.1" xmlns="http://www.w3.org/2000/svg" xmlns:xlink="http://www.w3.org/1999/xlink">
    <!-- Generator: Sketch 59.1 (86144) - https://sketch.com -->
    <title>Facebook</title>
    <desc>Created with Sketch.</desc>
    <g id="Page-1" stroke="none" stroke-width="1" fill="none" fill-rule="evenodd">
        <g id="About--2" transform="translate(-410.000000, -691.000000)" fill="#3554A4" fill-rule="nonzero">
            <path d="M433.791813,713.289451 C433.791813,713.998075 433.209948,714.577858 432.49878,714.577858 L426.421523,714.577858 L426.421523,705.430165 L429.524803,705.430165 L429.977365,701.887044 L426.421523,701.887044 L426.421523,699.632331 C426.421523,698.601605 426.68013,697.89298 428.167118,697.89298 L430.042016,697.89298 L430.042016,694.671962 C429.718758,694.607541 428.61968,694.543121 427.261995,694.543121 C424.546625,694.543121 422.671727,696.218051 422.671727,699.245808 L422.671727,701.887044 L419.568447,701.887044 L419.568447,705.430165 L422.671727,705.430165 L422.671727,714.577858 L411.293033,714.577858 C410.581865,714.577858 410,713.998075 410,713.289451 L410,692.288408 C410,691.579783 410.581865,691 411.293033,691 L432.434128,691 C433.145296,691 433.727161,691.579783 433.727161,692.288408 L433.727161,713.289451 L433.791813,713.289451 Z" id="Facebook"></path>
        </g>
    </g>
</svg>