<?xml version="1.0" encoding="UTF-8"?>
<svg width="25px" height="21px" viewBox="0 0 25 21" version="1.1" xmlns="http://www.w3.org/2000/svg" xmlns:xlink="http://www.w3.org/1999/xlink">
    <!-- Generator: Sketch 59.1 (86144) - https://sketch.com -->
    <title>Twitter</title>
    <desc>Created with Sketch.</desc>
    <g id="Page-1" stroke="none" stroke-width="1" fill="none" fill-rule="evenodd">
        <g id="About--2" transform="translate(-355.000000, -693.000000)" fill="#2DAEF3" fill-rule="nonzero">
            <path d="M378.403903,693.386522 C377.434128,693.966306 376.399701,694.417248 375.235971,694.610509 C374.330848,693.644204 373.037815,693 371.615478,693 C368.900108,693 366.6373,695.254713 366.6373,698.08921 C366.6373,698.475732 366.701952,698.862254 366.766603,699.248777 C362.628897,699.055515 359.008403,696.994063 356.55164,693.966306 C356.099078,694.73935 355.905123,695.576815 355.905123,696.543121 C355.905123,698.282471 356.810247,699.82856 358.10328,700.794866 C357.262808,700.794866 356.55164,700.537184 355.840472,700.150662 L355.840472,700.215082 C355.840472,702.663057 357.521415,704.724509 359.848875,705.175451 C359.460965,705.304292 359.008403,705.368712 358.555842,705.368712 C358.232583,705.368712 357.909325,705.368712 357.650718,705.304292 C358.297235,707.301324 360.107482,708.782992 362.305638,708.847413 C360.624695,710.200241 358.49119,711.037706 356.16373,711.037706 C355.77582,711.037706 355.38791,711.037706 355,710.973285 C357.198157,712.390534 359.784223,713.227998 362.628897,713.227998 C371.744781,713.227998 376.787611,705.497553 376.787611,698.797834 C376.787611,698.604573 376.787611,698.346891 376.787611,698.15363 C377.757386,697.445006 378.597858,696.543121 379.244375,695.512395 C378.339251,695.898917 377.369476,696.221019 376.399701,696.285439 C377.240173,695.576815 378.015993,694.610509 378.403903,693.386522 Z" id="Twitter"></path>
        </g>
    </g>
</svg>